<svg xmlns="http://www.w3.org/2000/svg" viewBox="0 0 128 128" width="128" height="128">
  <defs>
    <linearGradient id="purpleGrad" x1="0%" y1="0%" x2="100%" y2="100%">
      <stop offset="0%" stop-color="#603CFC"/>
      <stop offset="100%" stop-color="#7B5FFD"/>
    </linearGradient>
  </defs>
  
  <!-- Background rounded square -->
  <rect x="4" y="4" width="120" height="120" rx="24" ry="24" fill="url(#purpleGrad)"/>
  
  <!-- Letter W - left side solid -->
  <polygon points="24,32 36,32 48,78 56,52 64,52 54,88 42,88" fill="white"/>
  <polygon points="56,52 64,52 72,78 80,52 80,52 72,88 60,88" fill="white"/>
  
  <!-- Right leg of W - dissolving into pixels -->
  <!-- Main right stroke, cut shorter -->
  <polygon points="72,78 80,52 92,52 88,66" fill="white"/>
  
  <!-- Dissolving pixels - scattered from the right leg -->
  <rect x="86" y="68" width="6" height="6" rx="1" fill="white" opacity="0.95"/>
  <rect x="94" y="62" width="5" height="5" rx="1" fill="white" opacity="0.85"/>
  <rect x="82" y="78" width="7" height="7" rx="1" fill="white" opacity="0.9"/>
  <rect x="92" y="74" width="4" height="4" rx="1" fill="white" opacity="0.7"/>
  <rect x="100" y="68" width="5" height="5" rx="1" fill="white" opacity="0.55"/>
  <rect x="90" y="82" width="5" height="5" rx="1" fill="white" opacity="0.6"/>
  <rect x="98" y="78" width="4" height="4" rx="1" fill="white" opacity="0.4"/>
  <rect x="84" y="88" width="5" height="5" rx="1" fill="white" opacity="0.5"/>
  <rect x="96" y="86" width="3" height="3" rx="1" fill="white" opacity="0.3"/>
  <rect x="104" y="74" width="3" height="3" rx="1" fill="white" opacity="0.3"/>
  <rect x="102" y="84" width="3" height="3" rx="1" fill="white" opacity="0.2"/>
  <rect x="94" y="92" width="3" height="3" rx="1" fill="white" opacity="0.2"/>
  <rect x="106" y="90" width="2" height="2" rx="0.5" fill="white" opacity="0.15"/>
  <rect x="100" y="94" width="2" height="2" rx="0.5" fill="white" opacity="0.1"/>
</svg>
